<svg xmlns="http://www.w3.org/2000/svg" xmlns:xlink="http://www.w3.org/1999/xlink" viewBox="0,0,256,256" width="100px" height="100px" fill-rule="nonzero"><g fill="#405ff2" fill-rule="nonzero" stroke="none" stroke-width="1" stroke-linecap="butt" stroke-linejoin="miter" stroke-miterlimit="10" stroke-dasharray="" stroke-dashoffset="0" font-family="none" font-weight="none" font-size="none" text-anchor="none" style="mix-blend-mode: normal"><g transform="scale(10.66667,10.66667)"><path d="M16,1c-1.135,0 -2.23103,0.47958 -2.95703,1.26758c-0.656,0.717 -1.05469,1.98967 -1.05469,3.01367c1.172,0 2.42414,-0.60034 3.11914,-1.40234c0.648,-0.751 0.89258,-1.66991 0.89258,-2.87891zM8.27539,5.51367c-2.094,0.001 -5.27539,1.96666 -5.27539,6.59766c0,4.213 3.76658,8.88867 5.89258,8.88867h0.0293c1.269,0 1.71217,-0.82303 3.45117,-0.83203c1.739,0.009 2.18317,0.83203 3.45117,0.83203h0.0293c1.542,0 3.94148,-2.46383 5.14648,-5.42383c-1.307,-0.652 -2.21484,-2.00017 -2.21484,-3.57617c0,-1.539 0.867,-2.8603 2.125,-3.5293c-1.087,-2.044 -3.01445,-2.95703 -4.43945,-2.95703c-1.539,0 -2.82566,1.04102 -4.09766,1.04102c-1.272,0 -2.55866,-1.04102 -4.09766,-1.04102zM8.27539,7.51367c0.432,0 0.96244,0.20388 1.52344,0.42188c0.748,0.29 1.59422,0.61914 2.57422,0.61914c0.98,0 1.82817,-0.32914 2.57617,-0.61914c0.56,-0.217 1.08948,-0.42187 1.52148,-0.42187c0.418,0 1.06874,0.19659 1.67773,0.68359c-0.867,1.054 -1.36133,2.38973 -1.36133,3.80273c0,1.597 0.62041,3.08069 1.69141,4.17969c-0.991,1.685 -2.21697,2.70631 -2.66797,2.82031c-0.152,-0.002 -0.26172,-0.04212 -0.63672,-0.20312c-0.577,-0.248 -1.4505,-0.62191 -2.8125,-0.62891c-1.341,0.007 -2.21206,0.38091 -2.78906,0.62891c-0.358,0.154 -0.47462,0.19617 -0.64062,0.20117c-0.99,-0.241 -3.93164,-3.56072 -3.93164,-6.88672c0,-3.473 2.20739,-4.59666 3.27539,-4.59766z"></path></g></g></svg>