<svg xmlns="http://www.w3.org/2000/svg" xmlns:xlink="http://www.w3.org/1999/xlink" viewBox="0,0,256,256" width="48px" height="48px" fill-rule="nonzero"><defs><linearGradient x1="18.102" y1="3.244" x2="25.297" y2="34.74" gradientUnits="userSpaceOnUse" id="color-1"><stop offset="0" stop-color="#405ff2"></stop><stop offset="0.297" stop-color="#405ff2"></stop><stop offset="0.798" stop-color="#405ff2"></stop><stop offset="1" stop-color="#405ff2"></stop></linearGradient><linearGradient x1="19.158" y1="23.862" x2="21.194" y2="66.931" gradientUnits="userSpaceOnUse" id="color-2"><stop offset="0" stop-color="#405ff2"></stop><stop offset="0.499" stop-color="#405ff2"></stop><stop offset="1" stop-color="#405ff2"></stop></linearGradient><linearGradient x1="32.943" y1="14.899" x2="36.541" y2="43.612" gradientUnits="userSpaceOnUse" id="color-3"><stop offset="0" stop-color="#405ff2"></stop><stop offset="0.519" stop-color="#405ff2"></stop><stop offset="1" stop-color="#405ff2"></stop></linearGradient><linearGradient x1="13.853" y1="5.901" x2="15.572" y2="42.811" gradientUnits="userSpaceOnUse" id="color-4"><stop offset="0.003" stop-color="#405ff2"></stop><stop offset="1" stop-color="#405ff2"></stop></linearGradient></defs><g fill="none" fill-rule="nonzero" stroke="none" stroke-width="1" stroke-linecap="butt" stroke-linejoin="miter" stroke-miterlimit="10" stroke-dasharray="" stroke-dashoffset="0" font-family="none" font-weight="none" font-size="none" text-anchor="none" style="mix-blend-mode: normal"><g transform="scale(5.33333,5.33333)"><path d="M13.488,4.012c-2.694,-1.504 -5.883,-0.234 -7.038,2.311l17.676,17.677l9.014,-9.014z" fill="url(#color-1)"></path><path d="M33.14,33.014l-9.014,-9.014l-17.676,17.677c1.156,2.546 4.345,3.815 7.038,2.312z" fill="url(#color-2)"></path><path d="M41.419,28.393c1.72,-0.96 2.58,-2.676 2.581,-4.393c-0.001,-1.717 -0.861,-3.434 -2.581,-4.393l-8.279,-4.621l-9.014,9.014l9.014,9.014z" fill="url(#color-3)"></path><path d="M6.45,6.323c-0.282,0.625 -0.45,1.329 -0.45,2.085v31.179c0,0.761 0.164,1.463 0.45,2.09l17.674,-17.68z" fill="url(#color-4)"></path></g></g></svg>