<svg xmlns="http://www.w3.org/2000/svg" width="51" height="60" viewBox="0 0 51 60" fill="none"><g clip-path="url(#clip0_103_1217)"><path d="M22.9688 52.9676C22.9688 52.732 22.827 52.5195 22.6096 52.4289C20.0682 51.3695 18.2812 48.8627 18.2812 45.9375V23.4375C18.2812 20.5123 20.0682 18.0054 22.6096 16.9461C22.827 16.8555 22.9688 16.6429 22.9688 16.4074V16.4062H18.2812C14.398 16.4062 11.25 19.5543 11.25 23.4375V45.9375C11.25 49.8207 14.398 52.9688 18.2812 52.9688H22.9688V52.9676Z" fill="#EEF1FB"></path><path d="M23.3706 41.3167L36.629 28.0583" stroke="#FF5CF4" stroke-width="3" stroke-miterlimit="10" stroke-linecap="round" stroke-linejoin="round"></path><path d="M30 21.0938L44.0625 2.34375" stroke="#405FF2" stroke-width="3" stroke-miterlimit="10" stroke-linecap="round" stroke-linejoin="round"></path><path d="M15.9375 2.34375L25.3895 12.9483" stroke="#405FF2" stroke-width="3" stroke-miterlimit="10" stroke-linecap="round" stroke-linejoin="round"></path><path d="M48.75 30V23.4375C48.75 19.5543 45.602 16.4062 41.7188 16.4062H38.0747C36.4508 13.6159 33.4612 11.7188 30 11.7188C26.5388 11.7188 23.5493 13.6159 21.9253 16.4062H18.2812C14.398 16.4062 11.25 19.5543 11.25 23.4375V45.9375C11.25 49.8207 14.398 52.9688 18.2812 52.9688H21.9253C23.5492 55.7591 26.5388 57.6562 30 57.6562C33.4612 57.6562 36.4507 55.7591 38.0747 52.9688H41.7188C45.602 52.9688 48.75 49.8207 48.75 45.9375V39.375" stroke="#405FF2" stroke-width="3" stroke-miterlimit="10" stroke-linecap="round" stroke-linejoin="round"></path></g><defs><clipPath id="clip0_103_1217"><rect width="51" height="60" fill="white"></rect></clipPath></defs></svg>